/* XPM */
static char * openBSD2_xpm[] = {
"22 18 190 2",
"  	c None",
". 	c #8E7B2C",
"+ 	c #B49E37",
"@ 	c #98842E",
"# 	c #B99F37",
"$ 	c #CAAB39",
"% 	c #856E24",
"& 	c #928430",
"* 	c #C5B342",
"= 	c #E1CC4C",
"- 	c #E0CD4D",
"; 	c #DAC549",
"> 	c #E6CC4A",
", 	c #D2B640",
"' 	c #CCAA38",
") 	c #BE992E",
"! 	c #B9A93F",
"~ 	c #DCCD4E",
"{ 	c #EADD57",
"] 	c #D8CD52",
"^ 	c #EFE25B",
"/ 	c #E4D856",
"( 	c #E6D753",
"_ 	c #EBD651",
": 	c #CFB641",
"< 	c #DBB83D",
"[ 	c #A18228",
"} 	c #85651C",
"| 	c #887D2E",
"1 	c #D2C54D",
"2 	c #DBD155",
"3 	c #E5DD5C",
"4 	c #E9E25E",
"5 	c #E9E25F",
"6 	c #E8DF5B",
"7 	c #EBDD57",
"8 	c #E4D14F",
"9 	c #EDD04A",
"0 	c #DEB83B",
"a 	c #B68E29",
"b 	c #B5A43D",
"c 	c #E4D552",
"d 	c #EBE15C",
"e 	c #EAE35F",
"f 	c #ECE664",
"g 	c #E8E263",
"h 	c #EEE866",
"i 	c #F6F068",
"j 	c #F4ED65",
"k 	c #F3EB61",
"l 	c #E2D655",
"m 	c #E3D04E",
"n 	c #D1BC48",
"o 	c #C49F31",
"p 	c #AFA23E",
"q 	c #E5D956",
"r 	c #D5CD55",
"s 	c #E6E061",
"t 	c #EBE565",
"u 	c #F8F26A",
"v 	c #F6F06A",
"w 	c #F2EC68",
"x 	c #F7F169",
"y 	c #F1E75E",
"z 	c #C8BC6B",
"A 	c #D6CFA1",
"B 	c #B49B61",
"C 	c #9F905F",
"D 	c #ACA13D",
"E 	c #E4DB59",
"F 	c #E5DE5E",
"G 	c #EDE765",
"H 	c #F5EF69",
"I 	c #F7F26A",
"J 	c #F6EE63",
"K 	c #D6CD7E",
"L 	c #DEDBD2",
"M 	c #BFAE8E",
"N 	c #ABA396",
"O 	c #B88C26",
"P 	c #D4AB35",
"Q 	c #CDBF4A",
"R 	c #E6DD5A",
"S 	c #EFE863",
"T 	c #F9F36B",
"U 	c #F6F069",
"V 	c #FAF46B",
"W 	c #F5EE63",
"X 	c #F2E55B",
"Y 	c #DBC863",
"Z 	c #C7AE4D",
"` 	c #BDAD47",
" .	c #987721",
"..	c #D8B138",
"+.	c #ECCE49",
"@.	c #E0CF4F",
"#.	c #E0D757",
"$.	c #E4DE5E",
"%.	c #F3ED68",
"&.	c #F0EA67",
"*.	c #EBE664",
"=.	c #E7E061",
"-.	c #F5EF68",
";.	c #F8F063",
">.	c #EEE058",
",.	c #DBC649",
"'.	c #C2B736",
").	c #D1C835",
"!.	c #AE8823",
"~.	c #BC9B31",
"{.	c #E9C845",
"].	c #CCBA46",
"^.	c #D9CD52",
"/.	c #E3DC5B",
"(.	c #DFD95E",
"_.	c #DDD55C",
":.	c #E6E05F",
"<.	c #DBCF55",
"[.	c #EEE664",
"}.	c #F3EC64",
"|.	c #EBE25C",
"1.	c #F1E057",
"2.	c #CEB843",
"3.	c #DAD248",
"4.	c #D3CA44",
"5.	c #B5912E",
"6.	c #ABA040",
"7.	c #C7A637",
"8.	c #A89939",
"9.	c #C6B948",
"0.	c #D8D057",
"a.	c #C4B246",
"b.	c #D4CB55",
"c.	c #E2DB60",
"d.	c #EEE865",
"e.	c #F6EF66",
"f.	c #E7E05C",
"g.	c #EEE159",
"h.	c #EED952",
"i.	c #E4C544",
"j.	c #C8B63D",
"k.	c #C5B73D",
"l.	c #8D7124",
"m.	c #C5B444",
"n.	c #DFD152",
"o.	c #ECE25C",
"p.	c #DDD457",
"q.	c #D9D257",
"r.	c #EAE360",
"s.	c #EEE660",
"t.	c #E9E05C",
"u.	c #F3E65C",
"v.	c #DECE4E",
"w.	c #E0C647",
"x.	c #CDAB38",
"y.	c #BE952C",
"z.	c #84641C",
"A.	c #9C832E",
"B.	c #C1B142",
"C.	c #DACC4F",
"D.	c #DACE52",
"E.	c #EEE35B",
"F.	c #E4DA58",
"G.	c #EFE35B",
"H.	c #E8D955",
"I.	c #E8D551",
"J.	c #DEC547",
"K.	c #E5C241",
"L.	c #CCA230",
"M.	c #9C7621",
"N.	c #C3B040",
"O.	c #D1BE47",
"P.	c #DBC84C",
"Q.	c #D2C049",
"R.	c #E3CE4E",
"S.	c #C9B442",
"T.	c #E1C545",
"U.	c #CEAC38",
"V.	c #C7A031",
"W.	c #9C7822",
"X.	c #806E27",
"Y.	c #AF9936",
"Z.	c #C3AA3C",
"`.	c #B79E36",
" +	c #CEAE3A",
".+	c #B99931",
"++	c #B58F2B",
"@+	c #967321",
"#+	c #8E6C21",
"$+	c #71571A",
"                                            ",
"                                            ",
"                . + @ # $ %                 ",
"              & * = - ; > , ' )             ",
"            ! ~ { ] ^ / ( _ : < [ }         ",
"          | 1 2 3 4 5 4 6 7 8 9 0 a         ",
"        b c d e f g h i j k l m n o         ",
"        p q r s t u v w x j y z A B C       ",
"        D E F G w H u H I x J K L M N       ",
"  O P   Q R S w T U x T V x W X Y Z `  .    ",
"    ..+.@.#.$.%.&.*.=.-.x i ;.>.,.'.).!.    ",
"    ~.{.].^./.(._.:.<.[.H }.|.1.2.3.4.5.6.  ",
"      7.8.9.R 0.a.b.c.d.e.f.g.h.i.j.k.l.    ",
"          m.n.o.p.q.r.s.t.u.v.w.x.y.z.      ",
"          A.B.C.D.E.F.G.H.I.J.K.L.M.        ",
"              N.O.P.Q.R.S.T.U.V.W.          ",
"                X.Y.Z.`. +.+++@+            ",
"                        #+$+                "};
