/* XPM */
static const char *help2[] = {
/* columns rows colors chars-per-pixel */
"20 19 2 1 ",
"  c black",
". c None",
/* pixels */
"........     .......",
".....    ..    .....",
"....  ........   ...",
"...  ...........  ..",
"..  .....  ...... ..",
".. .....     ....  .",
".  ....   .  ..... .",
". .....  ..  .....  ",
". .........  .....  ",
". ........  ....... ",
". .......   ......  ",
". ................  ",
".  ............... .",
".  ......  ......  .",
"..  ...... ...... ..",
"...  ...........  ..",
"....  ........   ...",
".....    ...   .....",
".......      ......."
};
