/* XPM */
static const char *wksp3[] = {
/* columns rows colors chars-per-pixel */
"18 18 98 2 ",
"   c black",
".  c #2E3134",
"X  c #303438",
"o  c #313438",
"O  c #313439",
"+  c #33373B",
"@  c #36383A",
"#  c #49311A",
"$  c #4A341E",
"%  c #402E20",
"&  c #403124",
"*  c #463424",
"=  c #473524",
"-  c #49392C",
";  c #5E3925",
":  c #503E2E",
">  c #564524",
",  c #534031",
"<  c #5B4431",
"1  c #5C4735",
"2  c #5C4737",
"3  c #54473E",
"4  c #634A2F",
"5  c #6F4C2B",
"6  c #704C2B",
"7  c #724C2A",
"8  c #65502C",
"9  c #7E552F",
"0  c #7F562F",
"q  c #634930",
"w  c #383C41",
"e  c #2B5E6C",
"r  c #3F6A79",
"t  c #454242",
"y  c #474B50",
"u  c #484B51",
"i  c #484D52",
"p  c #7B5E46",
"a  c #775F4B",
"s  c #78604B",
"d  c #7E6149",
"f  c #5B6065",
"g  c #5D6167",
"h  c #5D6269",
"j  c #636265",
"k  c #626669",
"l  c #62676E",
"z  c #6F6D6F",
"x  c #666B72",
"c  c #666B73",
"v  c #6A6E75",
"b  c #6F747C",
"n  c #747376",
"m  c #70757D",
"M  c #73767C",
"N  c #72787F",
"B  c #74787F",
"V  c #8F463B",
"C  c #964A3E",
"Z  c #A04F43",
"A  c #806148",
"S  c #926D48",
"D  c #936F4A",
"F  c #946F4A",
"G  c #937049",
"H  c #95714A",
"J  c #95724A",
"K  c #93704C",
"L  c #94704C",
"P  c #8C6C52",
"I  c #8B6E54",
"U  c #917258",
"Y  c #A96A47",
"T  c #B06F4A",
"R  c #BD7650",
"E  c #A38848",
"W  c #AA8D4B",
"Q  c #B49650",
"!  c #727880",
"~  c #737980",
"^  c #7A7E86",
"/  c #7C7F85",
"(  c #40869A",
")  c #40879C",
"_  c #418A9E",
"`  c #7F8187",
"'  c #7F8388",
"]  c #448EA2",
"[  c #64A4B8",
"{  c #67AABE",
"}  c #65CDEB",
"|  c #65CFED",
" . c #69D4F2",
".. c #68D6F3",
"X. c #888C94",
"o. c #B1B6BE",
"O. c #B6BCC3",
"+. c None",
/* pixels */
"+.+.+.+.+.e _ ] ] ] ] _ e +.+.+.+.+.",
"+.+.+.+.+.( } ........} ( +.+.+.+.+.",
"+.+.+.+.+.) | ........| ) +.+.+.+.+.",
"+.+.+.+.+.r [ { { { { [ r +.+.+.+.+.",
"+.+.+.+.+.M o.O.O.O.O.o.M +.+.+.+.+.",
"+.+.f +.+.+.` / X.X./ ` +.+.C Z V +.",
"+.+.~ l +.+.+.i b b i +.+.; T R Y +.",
"+.+.j ~ - +.3 z n n z 3 +.8 W Q E > ",
"q D a ^ s D D K L L K D F D J J G 4 ",
"# 5 % g t +.+.+.+.+.+.+.+.+.+.$ 7 # ",
"+.9 +.+.+.+.+.+.+.+.+.+.+.+.+.+.9 +.",
"+.9 +.+.u M N N ~ x +.+.+.+.+.+.9 +.",
"+.9 +.+.y x v B x h +.+.+.+.+.+.9 +.",
"+.9 +.+.+.+.k ' +.+.+.1 d A 1 +.9 +.",
"+.9 +.+.+.+.+.@ +.+.+., U P < +.9 +.",
"+.9 +.+.+.+.    +.+.+.= p I : +.9 +.",
"+.7 +.+.. +.+.+ +.+ +.+.= & +.+.7 +.",
"+.+.+.+.+ + +.w +.w +.+.+.+.+.+.+.+."
};
